<?xml version="1.0"?>
<svg xmlns="http://www.w3.org/2000/svg" height="512px" viewBox="-34 0 512 512" width="512px"><path d="m196.265625 349.867188c-2.183594 0-4.367187-.835938-6.03125-2.5l-85.335937-85.335938c-3.335938-3.335938-3.335938-8.726562 0-12.0625 3.328124-3.339844 8.738281-3.339844 12.066406 0l85.335937 85.332031c3.335938 3.335938 3.335938 8.730469 0 12.066407-1.664062 1.664062-3.847656 2.5-6.035156 2.5zm0 0" fill="#FFFFFF"/><path d="m110.933594 264.535156c-2.183594 0-4.371094-.839844-6.035156-2.503906-3.335938-3.335938-3.335938-8.726562 0-12.0625l85.335937-85.335938c3.328125-3.335937 8.738281-3.335937 12.066406 0 3.335938 3.335938 3.335938 8.730469 0 12.066407l-85.335937 85.332031c-1.664063 1.664062-3.847656 2.503906-6.03125 2.503906zm0 0" fill="#FFFFFF"/><path d="m435.199219 264.535156h-324.265625c-4.710938 0-8.535156-3.824218-8.535156-8.535156s3.824218-8.535156 8.535156-8.535156h324.265625c4.710937 0 8.535156 3.824218 8.535156 8.535156s-3.824219 8.535156-8.535156 8.535156zm0 0" fill="#FFFFFF"/><path d="m232.804688 512h-158.410157c-41.019531 0-74.394531-33.375-74.394531-74.394531v-363.210938c0-41.019531 33.375-74.394531 74.394531-74.394531h158.421875c41.007813 0 74.382813 33.375 74.382813 74.394531v130.40625c0 4.710938-3.820313 8.53125-8.53125 8.53125-4.710938 0-8.535157-3.820312-8.535157-8.53125v-130.40625c0-31.609375-25.710937-57.328125-57.328124-57.328125h-158.410157c-31.609375 0-57.328125 25.71875-57.328125 57.328125v363.210938c0 31.609375 25.71875 57.328125 57.328125 57.328125h158.421875c31.605469 0 57.316406-25.71875 57.316406-57.328125v-130.40625c0-4.710938 3.824219-8.53125 8.535157-8.53125 4.710937 0 8.53125 3.820312 8.53125 8.53125v130.414062c0 41.011719-33.375 74.386719-74.394531 74.386719zm0 0" fill="#FFFFFF"/></svg>
