<svg xmlns="http://www.w3.org/2000/svg" width="512" height="512" viewBox="0 -26 512 512"><path fill="#fff" d="m503.464844 460.800781h-494.929688c-4.710937 0-8.535156-3.816406-8.535156-8.535156v-341.332031c0-4.71875 3.824219-8.535156 8.535156-8.535156h494.929688c4.710937 0 8.535156 3.816406 8.535156 8.535156v341.332031c0 4.71875-3.824219 8.535156-8.535156 8.535156zm-486.398438-17.066406h477.867188v-324.269531h-477.867188zm0 0"/><path fill="#fff" d="m452.265625 119.464844h-392.53125c-4.710937 0-8.535156-3.8125-8.535156-8.53125v-51.199219c0-4.71875 3.824219-8.535156 8.535156-8.535156h392.53125c4.710937 0 8.535156 3.816406 8.535156 8.535156v51.199219c0 4.71875-3.824219 8.53125-8.535156 8.53125zm-384-17.066406h375.46875v-34.132813h-375.46875zm0 0"/><path fill="#fff" d="m401.066406 68.265625h-290.132812c-4.710938 0-8.535156-3.8125-8.535156-8.53125v-51.199219c0-4.722656 3.824218-8.535156 8.535156-8.535156h290.132812c4.710938 0 8.535156 3.8125 8.535156 8.535156v51.199219c0 4.71875-3.824218 8.53125-8.535156 8.53125zm-281.601562-17.066406h273.070312v-34.132813h-273.070312zm0 0"/><path fill="#fff" d="m213.546875 358.929688c-2.976563 0-5.957031-.785157-8.679687-2.347657-5.382813-3.097656-8.601563-8.636719-8.601563-14.804687v-128.359375c0-6.175781 3.210937-11.707031 8.59375-14.804688 5.375-3.089843 12.050781-3.082031 17.417969.027344l110.515625 64.1875c5.339843 3.097656 8.539062 8.625 8.539062 14.769531 0 6.144532-3.199219 11.664063-8.539062 14.769532l-110.507813 64.179687c-2.738281 1.589844-5.742187 2.382813-8.738281 2.382813zm.152344-145.546876-.367188 128.417969 110.882813-64.1875zm0 0"/></svg>